#N canvas 332 1 1477 1041 12;
#X obj 334 698 dac~;
#X floatatom 283 399 5 0 0 0 - - - 0;
#X obj 354 268 tgl 15 0 empty empty empty 17 7 0 10 #fcfcfc #000000 #000000 0 1;
#X obj 267 283 loadbang;
#X floatatom 617 374 5 0 0 0 - - - 0;
#X obj 366 378 random 3;
#X obj 476 308 random 2;
#X obj 461 398 hihat~;
#X obj 600 313 random 60;
#X obj 512 548 hv.comb~;
#X floatatom 753 382 5 0 0 0 - - - 0;
#X obj 735 348 + 60;
#X obj 540 595 *~ 0.6;
#X obj 421 596 *~ 0.6;
#X obj 350 596 *~ 0.4;
#X obj 267 597 *~ 0.7;
#X obj 408 248 metro 240;
#X obj 343 324 metro 480;
#X obj 738 311 random 100;
#X text 606 244 FM comb drum noodle;
#X obj 526 433 hihat~;
#X obj 523 349 random 8;
#X floatatom 463 351 5 0 0 0 - - - 0;
#X floatatom 533 382 5 0 0 0 - - - 0;
#X obj 407 529 *~ 0.7;
#X obj 270 441 kick~ 0 110 25 32 18;
#X obj 379 496 rr_fm3~ 2 4 60 150 500 6;
#X floatatom 578 509 5 0 0 0 - - - 0;
#X obj 618 473 / 100;
#X obj 684 477 / 100;
#X floatatom 668 507 5 0 0 0 - - - 0;
#X obj 486 594 *~ 0.5;
#X obj 597 445 rr_fm4~ 0.5 220 6 110 500 50 30;
#X obj 290 655 *~ 0.1;
#X obj 383 654 *~ 0.1;
#X connect 1 0 25 0;
#X connect 2 0 16 0;
#X connect 2 0 17 0;
#X connect 3 0 2 0;
#X connect 4 0 26 0;
#X connect 5 0 1 0;
#X connect 6 0 22 0;
#X connect 7 0 13 0;
#X connect 8 0 4 0;
#X connect 8 0 28 0;
#X connect 9 0 12 0;
#X connect 9 0 31 0;
#X connect 10 0 32 0;
#X connect 11 0 10 0;
#X connect 12 0 34 0;
#X connect 13 0 9 0;
#X connect 13 0 33 0;
#X connect 13 0 34 0;
#X connect 14 0 34 0;
#X connect 15 0 33 0;
#X connect 16 0 6 0;
#X connect 16 0 8 0;
#X connect 16 0 21 0;
#X connect 17 0 5 0;
#X connect 17 0 18 0;
#X connect 18 0 11 0;
#X connect 18 0 29 0;
#X connect 20 0 9 0;
#X connect 21 0 23 0;
#X connect 22 0 7 0;
#X connect 23 0 20 0;
#X connect 24 0 9 0;
#X connect 25 0 33 0;
#X connect 25 0 34 0;
#X connect 26 0 14 0;
#X connect 26 0 15 0;
#X connect 26 0 24 0;
#X connect 27 0 9 1;
#X connect 28 0 27 0;
#X connect 29 0 30 0;
#X connect 30 0 9 2;
#X connect 31 0 33 0;
#X connect 32 0 9 0;
#X connect 33 0 0 0;
#X connect 34 0 0 1;
