#N canvas 829 377 450 608 12;
#X obj 114 467 *~;
#X obj 114 442 cos~;
#X obj 113 418 *~;
#X obj 113 395 *~;
#X obj 130 251 t f f;
#X obj 114 371 *~;
#X obj 129 289 / 29;
#X obj 182 86 sel 0 1 2;
#X obj 160 334 line~;
#X obj 140 59 inlet;
#X obj 107 511 outlet~;
#X obj 243 116 t b b;
#X obj 201 142 t b b;
#X obj 151 165 t b b;
#X msg 174 292 1 \, 0 \$1;
#X obj 180 226 f \$3;
#X obj 233 193 f \$4;
#X obj 274 226 f \$5;
#X obj 134 205 f \$2;
#X connect 0 0 10 0;
#X connect 1 0 0 0;
#X connect 2 0 1 0;
#X connect 3 0 2 0;
#X connect 4 0 6 0;
#X connect 4 1 14 0;
#X connect 5 0 3 1;
#X connect 5 0 3 0;
#X connect 6 0 5 1;
#X connect 7 0 13 0;
#X connect 7 1 12 0;
#X connect 7 2 11 0;
#X connect 8 0 0 1;
#X connect 8 0 5 0;
#X connect 8 0 2 1;
#X connect 9 0 7 0;
#X connect 11 0 18 0;
#X connect 11 1 17 0;
#X connect 12 0 18 0;
#X connect 12 1 16 0;
#X connect 13 0 18 0;
#X connect 13 1 15 0;
#X connect 14 0 8 0;
#X connect 15 0 6 1;
#X connect 16 0 6 1;
#X connect 17 0 6 1;
#X connect 18 0 4 0;
