#N canvas 381 64 1271 977 12;
#X obj 330 339 samphold~;
#X obj 241 408 *~;
#X obj 390 246 noise~;
#X obj 555 213 loadbang;
#X obj 340 643 dac~;
#X obj 276 284 phasor~;
#X obj 560 249 tgl 19 0 empty empty empty 0 -10 0 12 #fcfcfc #000000 #000000 0 1;
#X obj 242 450 *~;
#X floatatom 574 378 5 0 0 0 - - - 0;
#X floatatom 635 378 5 0 0 0 - - - 0;
#X floatatom 551 453 5 0 0 0 - - - 0;
#X obj 286 595 *~ 0.1;
#X obj 396 596 *~ 0.1;
#N canvas 710 139 387 572 kick 0;
#X obj -179 434 *~;
#X obj -179 409 cos~;
#X obj -180 385 *~;
#X obj -180 362 *~;
#X obj -163 218 t f f;
#X obj -179 338 *~;
#X obj -111 53 sel 0 1 2;
#X obj -54 85 t b b b;
#X obj -92 112 t b b b;
#X obj -129 142 t b b b;
#X text 25 405 efficient kick drum;
#X text -1 404 ajf;
#X msg -133 279 1 0 \, 0 \$1;
#X obj -133 301 line~;
#X obj -153 26 inlet;
#X obj -178 503 outlet~;
#X text -101 406 simplifed from:;
#X obj -163 244 / 29;
#X msg -163 194 110;
#X obj -162 468 *~ 3;
#X msg -30 197 10.1;
#X msg -70 196 20.9;
#X msg -107 196 5.5;
#X connect 0 0 19 0;
#X connect 1 0 0 0;
#X connect 2 0 1 0;
#X connect 3 0 2 0;
#X connect 4 0 17 0;
#X connect 4 1 12 0;
#X connect 5 0 3 1;
#X connect 5 0 3 0;
#X connect 6 0 9 0;
#X connect 6 1 8 0;
#X connect 6 2 7 0;
#X connect 7 0 18 0;
#X connect 7 1 20 0;
#X connect 8 0 18 0;
#X connect 8 1 21 0;
#X connect 9 0 18 0;
#X connect 9 1 22 0;
#X connect 12 0 13 0;
#X connect 13 0 0 1;
#X connect 13 0 5 0;
#X connect 13 0 2 1;
#X connect 14 0 6 0;
#X connect 17 0 5 1;
#X connect 18 0 4 0;
#X connect 19 0 15 0;
#X connect 20 0 17 1;
#X connect 21 0 17 1;
#X connect 22 0 17 1;
#X restore 504 409 pd kick;
#X obj 493 483 *~;
#X obj 531 295 metro 240;
#X obj 511 347 random 3;
#X text 310 202 Osc and kick;
#X obj 276 509 osc~;
#X obj 406 391 * 16;
#X obj 591 420 random 8;
#X obj 624 344 random 100;
#X obj 249 353 *~ 128;
#X obj 352 456 *~ 2;
#X obj 438 521 osc~;
#X obj 432 344 lop~;
#X floatatom 608 497 5 0 0 0 - - - 0;
#X obj 609 455 * 30;
#X obj 588 566 *~;
#X obj 648 539 line~;
#X msg 664 497 1;
#X msg 731 505 0 20;
#X obj 695 379 t b b;
#X obj 730 445 sel 1;
#X obj 506 530 hip~ 8000;
#X msg 729 476 0 80;
#X obj 726 411 random 8;
#X obj 435 559 *~ 4;
#X obj 503 585 *~ 2;
#X obj 436 305 *~;
#X obj 539 494 / 16;
#X connect 0 0 1 0;
#X connect 0 0 24 0;
#X connect 1 0 7 0;
#X connect 1 0 14 0;
#X connect 2 0 34 0;
#X connect 2 0 0 0;
#X connect 2 0 39 0;
#X connect 3 0 6 0;
#X connect 5 0 0 1;
#X connect 5 0 22 0;
#X connect 6 0 15 0;
#X connect 7 0 18 0;
#X connect 8 0 13 0;
#X connect 9 0 19 0;
#X connect 9 0 27 0;
#X connect 10 0 5 0;
#X connect 10 0 14 1;
#X connect 10 0 40 0;
#X connect 11 0 4 0;
#X connect 12 0 4 1;
#X connect 13 0 23 0;
#X connect 14 0 24 0;
#X connect 15 0 16 0;
#X connect 15 0 20 0;
#X connect 15 0 21 0;
#X connect 15 0 32 0;
#X connect 16 0 8 0;
#X connect 18 0 11 0;
#X connect 18 0 14 0;
#X connect 19 0 1 1;
#X connect 19 0 14 1;
#X connect 20 0 10 0;
#X connect 21 0 9 0;
#X connect 22 0 7 1;
#X connect 23 0 12 0;
#X connect 23 0 11 0;
#X connect 24 0 12 0;
#X connect 25 0 23 0;
#X connect 26 0 25 1;
#X connect 27 0 26 0;
#X connect 28 0 37 0;
#X connect 28 0 38 0;
#X connect 29 0 28 1;
#X connect 30 0 29 0;
#X connect 31 0 29 0;
#X connect 32 0 36 0;
#X connect 32 1 30 0;
#X connect 33 0 35 0;
#X connect 33 1 31 0;
#X connect 34 0 28 0;
#X connect 35 0 29 0;
#X connect 36 0 33 0;
#X connect 37 0 11 0;
#X connect 38 0 12 0;
#X connect 39 0 25 0;
#X connect 40 0 39 1;
