#N canvas 959 193 491 627 10;
#X obj 32 586 outlet~;
#X obj 36 21 inlet~;
#X obj 32 476 +~;
#X obj 257 461 *~;
#X obj 257 281 line~;
#X msg 272 395 \$1 10;
#X obj 272 417 line~;
#X obj 77 441 *~;
#X obj 77 282 line~;
#X obj 77 257 pack f f;
#X msg 92 395 \$1 10;
#X obj 92 417 line~;
#X obj 257 256 pack f f;
#X obj 32 531 -~;
#X obj 77 309 vd~ \$0-inputdelay;
#X obj 257 307 vd~ \$0-outputdelay;
#X obj 92 365 clip 0 0.999;
#X obj 272 365 clip 0 0.999;
#X obj 171 203 clip 0 1000;
#X obj 171 225 t f f;
#X obj 147 21 loadbang;
#X obj 272 24 inlet;
#X obj 340 23 inlet;
#X obj 77 204 min 500;
#X obj 257 203 min 1000;
#X obj 72 86 delwrite~ \$0-inputdelay 500;
#X obj 92 586 delwrite~ \$0-outputdelay 500;
#X msg 78 171 250;
#X msg 275 339 0.8;
#X msg 268 166 100;
#X connect 1 0 2 0;
#X connect 1 0 25 0;
#X connect 2 0 13 0;
#X connect 3 0 13 1;
#X connect 4 0 15 0;
#X connect 5 0 6 0;
#X connect 6 0 3 1;
#X connect 7 0 2 1;
#X connect 8 0 14 0;
#X connect 9 0 8 0;
#X connect 10 0 11 0;
#X connect 11 0 7 1;
#X connect 12 0 4 0;
#X connect 13 0 0 0;
#X connect 13 0 26 0;
#X connect 14 0 7 0;
#X connect 15 0 3 0;
#X connect 16 0 10 0;
#X connect 17 0 5 0;
#X connect 18 0 19 0;
#X connect 19 0 9 1;
#X connect 19 1 12 1;
#X connect 20 0 27 0;
#X connect 20 0 29 0;
#X connect 20 0 28 0;
#X connect 21 0 18 0;
#X connect 22 0 16 0;
#X connect 23 0 9 0;
#X connect 24 0 12 0;
#X connect 27 0 23 0;
#X connect 28 0 17 0;
#X connect 29 0 24 0;
