#N canvas 381 241 998 682 12;
#X obj 201 489 dac~;
#X floatatom 86 264 5 0 0 0 - - - 0;
#N canvas 618 313 710 487 fmsine 0;
#X obj 118 43 inlet;
#X obj 222 166 mtof;
#X obj 215 293 osc~;
#X obj 214 270 +~;
#X obj 272 238 *~;
#X obj 271 207 *;
#X obj 268 180 t f f;
#X obj 167 410 outlet~;
#X obj 171 353 *~;
#X obj 132 88 t b a;
#X obj 143 286 line~;
#X obj 158 317 *~;
#X obj 145 169 t b b;
#X obj 164 227 float;
#X obj 141 255 pack 0 f;
#X obj 287 365 s~ \$0feed;
#X obj 293 282 r~ \$0feed;
#X obj 391 37 inlet;
#X text 379 17 feedback;
#X obj 287 326 *~;
#X obj 190 43 inlet;
#X text 117 18 level;
#X text 188 16 pitch;
#X obj 244 41 inlet;
#X text 242 14 mod-amt;
#X obj 317 37 inlet;
#X text 314 13 decay;
#X connect 0 0 9 0;
#X connect 1 0 3 0;
#X connect 2 0 8 1;
#X connect 2 0 19 0;
#X connect 3 0 2 0;
#X connect 4 0 3 1;
#X connect 5 0 4 1;
#X connect 6 0 5 0;
#X connect 6 1 5 1;
#X connect 8 0 7 0;
#X connect 9 0 12 0;
#X connect 9 1 13 1;
#X connect 10 0 11 0;
#X connect 10 0 11 1;
#X connect 11 0 8 0;
#X connect 12 0 14 0;
#X connect 12 1 13 0;
#X connect 13 0 10 0;
#X connect 14 0 10 0;
#X connect 16 0 4 0;
#X connect 17 0 19 1;
#X connect 19 0 15 0;
#X connect 20 0 1 0;
#X connect 23 0 6 0;
#X connect 25 0 14 1;
#X restore 186 356 pd fmsine;
#X obj 218 267 + 12;
#X obj 306 343 kick~;
#X obj 311 217 t b;
#X obj 379 332 hihat~;
#X obj 330 260 random 3;
#X obj 369 368 samphold~;
#X obj 448 391 *~ 440;
#X obj 424 457 phasor~;
#X obj 354 494 lop~;
#X obj 436 489 lop~;
#X obj 437 424 +~ 220;
#X obj 389 287 * 880;
#X obj 361 210 random 5;
#X obj 112 384 delays~;
#X obj 109 446 *~ 0.2;
#X obj 240 404 *~ 0.15;
#X obj 89 312 pluck~ 40 0.95;
#X obj 214 455 *~ 0.1;
#X obj 311 431 *~ 0.1;
#X obj 470 259 noise~;
#X obj 473 308 *~;
#X obj 420 245 * 480;
#X obj 216 226 * 64;
#X obj 459 340 /~ 2.5;
#X text 196 148 Percolator 3 logistic noodle;
#X obj 207 182 logeq~ 180 3.95;
#X obj 259 316 * 8;
#X obj 164 243 * 18;
#X obj 98 209 * 2;
#X obj 266 264 * 1.8;
#X connect 1 0 2 0;
#X connect 2 0 16 0;
#X connect 2 0 21 0;
#X connect 3 0 2 1;
#X connect 3 0 29 0;
#X connect 4 0 20 0;
#X connect 4 0 21 0;
#X connect 5 0 4 0;
#X connect 5 0 7 0;
#X connect 5 0 15 0;
#X connect 6 0 8 0;
#X connect 6 0 20 0;
#X connect 6 0 21 0;
#X connect 7 0 6 0;
#X connect 7 0 4 1;
#X connect 7 0 14 0;
#X connect 8 0 9 0;
#X connect 9 0 13 0;
#X connect 10 0 11 0;
#X connect 10 0 12 0;
#X connect 11 0 16 0;
#X connect 11 0 20 0;
#X connect 12 0 21 0;
#X connect 13 0 10 0;
#X connect 14 0 11 1;
#X connect 14 0 16 1;
#X connect 15 0 24 0;
#X connect 16 0 17 0;
#X connect 16 0 18 0;
#X connect 17 0 21 0;
#X connect 18 0 20 0;
#X connect 19 0 20 0;
#X connect 20 0 0 0;
#X connect 21 0 0 1;
#X connect 22 0 23 0;
#X connect 22 0 8 0;
#X connect 23 0 26 0;
#X connect 24 0 12 1;
#X connect 25 0 3 0;
#X connect 26 0 11 0;
#X connect 26 0 12 0;
#X connect 28 0 5 0;
#X connect 28 0 23 1;
#X connect 28 0 25 0;
#X connect 28 0 16 2;
#X connect 28 0 19 0;
#X connect 28 0 30 0;
#X connect 28 0 31 0;
#X connect 28 0 32 0;
#X connect 29 0 2 3;
#X connect 30 0 2 2;
#X connect 31 0 1 0;
#X connect 31 0 4 1;
#X connect 31 0 8 1;
#X connect 32 0 2 4;
