#N canvas 897 569 450 370 12;
#X obj 293 110 mtof;
#X obj 295 194 /;
#X obj 296 139 t b f;
#X obj 265 68 line~;
#X obj 203 14 noise~;
#X obj 232 92 *~;
#X msg 286 29 3 \, 0 10;
#X obj 321 67 * 50;
#X msg 295 166 100;
#X obj 182 55 osc~;
#X obj 126 276 outlet~;
#X obj 85 15 inlet;
#X obj 76 223 delread~ \$0-buf 100;
#X obj 106 181 delwrite~ \$0-buf 100;
#X obj 94 70 lop~;
#X obj 232 137 * \$1;
#X obj 108 137 *~ \$2;
#X connect 0 0 2 0;
#X connect 1 0 12 0;
#X connect 2 0 8 0;
#X connect 2 0 6 0;
#X connect 2 1 1 1;
#X connect 3 0 5 1;
#X connect 4 0 5 0;
#X connect 5 0 13 0;
#X connect 6 0 3 0;
#X connect 7 0 0 0;
#X connect 7 0 15 0;
#X connect 8 0 1 0;
#X connect 9 0 5 0;
#X connect 11 0 7 0;
#X connect 12 0 10 0;
#X connect 12 0 14 0;
#X connect 14 0 16 0;
#X connect 15 0 9 0;
#X connect 15 0 14 1;
#X connect 16 0 13 0;
