#N canvas 332 1 1477 1041 12;
#X obj 334 697 dac~;
#X floatatom 283 399 5 0 0 0 - - - 0;
#X obj 354 268 tgl 15 0 empty empty empty 17 7 0 10 #fcfcfc #000000 #000000 0 1;
#X obj 282 239 loadbang;
#X floatatom 617 374 5 0 0 0 - - - 0;
#X obj 476 308 random 2;
#X obj 461 398 hihat~;
#X floatatom 753 382 5 0 0 0 - - - 0;
#X obj 540 595 *~ 0.6;
#X obj 421 596 *~ 0.6;
#X obj 350 596 *~ 0.4;
#X obj 267 597 *~ 0.7;
#X obj 408 248 metro 240;
#X obj 334 339 metro 480;
#X obj 694 313 random 100;
#X obj 526 433 hihat~;
#X floatatom 463 351 5 0 0 0 - - - 0;
#X floatatom 533 382 5 0 0 0 - - - 0;
#X obj 407 529 *~ 0.7;
#X floatatom 578 509 5 0 0 0 - - - 0;
#X obj 684 477 / 100;
#X floatatom 668 507 5 0 0 0 - - - 0;
#X obj 486 594 *~ 0.5;
#X obj 621 476 * 2;
#X obj 291 655 *~ 0.1;
#X obj 384 655 *~ 0.1;
#X obj 285 296 noise~;
#X obj 378 291 samphold~;
#X obj 613 274 lop~;
#X obj 527 270 *~ 0.8;
#X floatatom 665 567 5 0 0 0 - - - 0;
#X obj 621 594 * 6;
#X obj 735 348 + 80;
#X obj 523 349 random 10;
#X obj 336 377 random 4;
#X obj 601 313 random 80;
#X obj 271 441 kick~ 0 110 27 32 15;
#X obj 379 496 rr_fm3~ 2 4 30 250 500 60;
#X obj 512 548 hv.delays~;
#X text 682 271 FM delay drum noodle;
#X obj 615 438 rr_fm4~ 1.5 220 8 440 500 50 30;
#X connect 1 0 36 0;
#X connect 2 0 12 0;
#X connect 2 0 13 0;
#X connect 3 0 2 0;
#X connect 4 0 37 0;
#X connect 5 0 16 0;
#X connect 6 0 9 0;
#X connect 7 0 40 0;
#X connect 8 0 25 0;
#X connect 9 0 24 0;
#X connect 9 0 25 0;
#X connect 9 0 38 0;
#X connect 10 0 25 0;
#X connect 11 0 24 0;
#X connect 12 0 5 0;
#X connect 12 0 33 0;
#X connect 12 0 35 0;
#X connect 13 0 14 0;
#X connect 13 0 34 0;
#X connect 14 0 20 0;
#X connect 14 0 32 0;
#X connect 15 0 38 0;
#X connect 15 0 27 1;
#X connect 16 0 6 0;
#X connect 17 0 15 0;
#X connect 18 0 38 0;
#X connect 19 0 38 1;
#X connect 20 0 21 0;
#X connect 21 0 38 2;
#X connect 22 0 24 0;
#X connect 23 0 19 0;
#X connect 23 0 31 0;
#X connect 24 0 0 0;
#X connect 25 0 0 1;
#X connect 26 0 27 0;
#X connect 27 0 28 0;
#X connect 28 0 29 0;
#X connect 29 0 11 0;
#X connect 29 0 8 0;
#X connect 30 0 28 1;
#X connect 31 0 30 0;
#X connect 32 0 7 0;
#X connect 33 0 17 0;
#X connect 34 0 1 0;
#X connect 35 0 4 0;
#X connect 35 0 23 0;
#X connect 36 0 24 0;
#X connect 36 0 25 0;
#X connect 37 0 10 0;
#X connect 37 0 11 0;
#X connect 37 0 18 0;
#X connect 38 0 8 0;
#X connect 38 0 22 0;
#X connect 40 0 27 1;
#X connect 40 0 38 0;
