#N canvas 332 0 1477 1041 12;
#X obj 335 653 dac~;
#X floatatom 283 399 5 0 0 0 - - - 0;
#X obj 354 268 tgl 15 0 empty empty empty 17 7 0 10 #fcfcfc #000000 #000000 0 1;
#X obj 284 253 loadbang;
#X floatatom 617 374 5 0 0 0 - - - 0;
#X obj 415 312 random 2;
#X obj 461 398 hihat~;
#X floatatom 753 382 5 0 0 0 - - - 0;
#X obj 540 595 *~ 0.6;
#X obj 408 248 metro 240;
#X obj 526 433 hihat~;
#X floatatom 463 351 5 0 0 0 - - - 0;
#X floatatom 533 382 5 0 0 0 - - - 0;
#X obj 407 529 *~ 0.7;
#X floatatom 578 509 5 0 0 0 - - - 0;
#X obj 684 477 / 100;
#X floatatom 668 507 5 0 0 0 - - - 0;
#X obj 486 594 *~ 0.5;
#X obj 621 476 * 2;
#X obj 276 608 *~ 0.1;
#X obj 389 622 *~ 0.1;
#X obj 302 311 samphold~;
#X obj 613 274 lop~;
#X floatatom 665 567 5 0 0 0 - - - 0;
#X obj 621 594 * 6;
#X obj 512 548 hv.delays~;
#X text 668 249 FM delay drum noodle;
#X obj 516 249 metro 360;
#X obj 545 304 *~ 0.4;
#X obj 336 378 random 5;
#X obj 379 496 rr_fm3~ 2 40 30 25 50 60;
#X obj 418 575 *~ 0.7;
#X obj 621 428 rr_fm4~ 4 100 8 120 50 50 30;
#X obj 694 313 random 100;
#X obj 735 348 + 40;
#X obj 523 349 random 16;
#X obj 343 559 *~ 0.7;
#X obj 269 440 kick~ 0 220 37 28 10;
#X obj 601 313 random 160;
#X obj 255 564 *~ 0.5;
#X obj 252 506 *~ 0.6;
#X connect 1 0 37 0;
#X connect 2 0 9 0;
#X connect 2 0 27 0;
#X connect 3 0 2 0;
#X connect 4 0 30 0;
#X connect 5 0 11 0;
#X connect 6 0 31 0;
#X connect 6 0 21 0;
#X connect 7 0 32 0;
#X connect 8 0 20 0;
#X connect 9 0 33 0;
#X connect 9 0 35 0;
#X connect 10 0 25 0;
#X connect 11 0 6 0;
#X connect 12 0 10 0;
#X connect 13 0 25 0;
#X connect 14 0 25 1;
#X connect 15 0 16 0;
#X connect 16 0 25 2;
#X connect 17 0 19 0;
#X connect 18 0 14 0;
#X connect 18 0 24 0;
#X connect 19 0 0 0;
#X connect 20 0 0 1;
#X connect 21 0 22 0;
#X connect 22 0 28 0;
#X connect 23 0 22 1;
#X connect 24 0 23 0;
#X connect 25 0 8 0;
#X connect 25 0 17 0;
#X connect 27 0 5 0;
#X connect 27 0 29 0;
#X connect 27 0 38 0;
#X connect 28 0 8 0;
#X connect 28 0 39 0;
#X connect 29 0 1 0;
#X connect 30 0 13 0;
#X connect 30 0 21 0;
#X connect 30 0 39 0;
#X connect 31 0 19 0;
#X connect 31 0 25 0;
#X connect 32 0 25 0;
#X connect 33 0 15 0;
#X connect 33 0 34 0;
#X connect 34 0 7 0;
#X connect 35 0 12 0;
#X connect 36 0 20 0;
#X connect 37 0 36 0;
#X connect 37 0 40 0;
#X connect 38 0 4 0;
#X connect 38 0 18 0;
#X connect 39 0 19 0;
#X connect 40 0 39 0;
