#N canvas 130 130 680 645 12;
#X obj 116 517 *~;
#X obj 131 349 *~;
#X obj 130 143 t b b;
#X obj 130 256 pack f f;
#X obj 130 189 t f f;
#X msg 130 166 1;
#X obj 175 229 *;
#X obj 190 190 * 600;
#X obj 190 117 loadbang;
#X msg 190 167 0.1;
#X msg 130 279 \$1 0 \, 0 \$2;
#X obj 130 303 line~;
#X obj 269 344 *~;
#X obj 269 443 +~;
#X obj 269 467 osc~;
#X obj 240 344 +~;
#X obj 292 397 *~;
#X obj 321 396 *~;
#X obj 336 345 sig~ 1;
#X obj 336 373 -~;
#X msg 267 167 748.031 1023.62 0.173228 1968.5 9259.84;
#X obj 267 199 unpack f f f f f;
#X obj 267 231 osc~;
#X obj 290 257 osc~;
#X obj 298 344 *~;
#X obj 269 419 sig~;
#X obj 321 426 *~;
#X obj 130 118 sel 1;
#X obj 123 88 inlet;
#X obj 116 544 outlet~;
#X connect 0 0 29 0;
#X connect 1 0 0 1;
#X connect 2 0 5 0;
#X connect 3 0 10 0;
#X connect 4 0 3 0;
#X connect 4 1 6 0;
#X connect 5 0 4 0;
#X connect 6 0 3 1;
#X connect 7 0 6 1;
#X connect 8 0 9 0;
#X connect 8 0 20 0;
#X connect 9 0 7 0;
#X connect 10 0 11 0;
#X connect 11 0 1 0;
#X connect 11 0 1 1;
#X connect 11 0 24 0;
#X connect 12 0 17 0;
#X connect 13 0 14 0;
#X connect 14 0 0 0;
#X connect 15 0 16 0;
#X connect 16 0 26 0;
#X connect 17 0 26 0;
#X connect 18 0 19 0;
#X connect 18 0 16 1;
#X connect 19 0 17 1;
#X connect 20 0 21 0;
#X connect 21 0 22 0;
#X connect 21 1 23 0;
#X connect 21 2 24 1;
#X connect 21 3 26 1;
#X connect 21 4 25 0;
#X connect 22 0 12 0;
#X connect 22 0 15 0;
#X connect 23 0 12 1;
#X connect 23 0 15 1;
#X connect 24 0 19 1;
#X connect 25 0 13 0;
#X connect 26 0 13 1;
#X connect 27 0 2 0;
#X connect 28 0 27 0;
