#N canvas 944 504 450 300 12;
#X obj 187 37 loadbang;
#X obj 190 119 t f f;
#X obj 190 143 * -1;
#X obj 190 168 + 1;
#X obj 190 193 *;
#X floatatom 190 219 8 0 0 0 - - - 0;
#X msg 190 92 0.1;
#X obj 190 248 outlet;
#X obj 188 65 pipe \$1;
#X obj 224 166 * \$2;
#X connect 0 0 6 0;
#X connect 1 0 2 0;
#X connect 1 1 9 0;
#X connect 2 0 3 0;
#X connect 3 0 4 0;
#X connect 4 0 5 0;
#X connect 5 0 7 0;
#X connect 5 0 8 0;
#X connect 6 0 1 0;
#X connect 8 0 1 0;
#X connect 9 0 4 1;
