#N canvas 381 241 998 682 12;
#X obj 255 499 dac~;
#X obj 200 456 *~ 0.1;
#X obj 306 459 *~ 0.1;
#X obj 356 357 hihat~;
#X obj 429 265 t b;
#X obj 248 347 delays~;
#X obj 354 413 kick~;
#X obj 322 383 t b;
#X obj 248 391 *~ 0.4;
#X obj 416 421 *~;
#X obj 476 429 *~;
#X obj 448 388 osc~;
#X obj 509 389 osc~;
#X obj 84 306 piano~;
#X floatatom 494 276 5 0 0 0 - - - 0;
#X obj 449 194 random 48;
#X floatatom 84 252 5 0 0 0 - - - 0;
#X obj 103 178 * 36;
#X obj 313 302 * 220;
#X obj 483 358 * 110;
#X obj 294 217 pluck~ 100 0.7;
#X obj 235 294 *~ 0.1;
#X obj 433 321 random 2;
#X obj 89 213 + 32;
#X obj 150 221 pluck~ 80 0.4;
#X obj 319 147 logeq~ 600 3.7;
#X obj 434 356 * 4;
#X obj 151 289 *~ 0.05;
#X obj 182 147 logeq~ 300 3.75;
#X obj 481 236 + 68;
#X text 159 103 Percolator 2 logistic noodle;
#X connect 1 0 0 0;
#X connect 2 0 0 1;
#X connect 3 0 5 0;
#X connect 3 0 1 0;
#X connect 4 0 15 0;
#X connect 4 0 22 0;
#X connect 5 0 8 0;
#X connect 6 0 1 0;
#X connect 6 0 2 0;
#X connect 7 0 6 0;
#X connect 8 0 1 0;
#X connect 8 0 2 0;
#X connect 9 0 1 0;
#X connect 10 0 2 0;
#X connect 11 0 9 0;
#X connect 12 0 10 0;
#X connect 13 0 1 0;
#X connect 13 0 2 0;
#X connect 13 0 5 0;
#X connect 14 0 13 1;
#X connect 15 0 29 0;
#X connect 16 0 13 0;
#X connect 17 0 23 0;
#X connect 18 0 5 1;
#X connect 18 0 12 0;
#X connect 19 0 11 0;
#X connect 20 0 21 0;
#X connect 21 0 2 0;
#X connect 22 0 3 0;
#X connect 23 0 16 0;
#X connect 24 0 27 0;
#X connect 25 0 4 0;
#X connect 25 0 5 2;
#X connect 25 0 10 1;
#X connect 25 0 19 0;
#X connect 25 0 20 0;
#X connect 25 0 26 0;
#X connect 26 0 6 1;
#X connect 27 0 1 0;
#X connect 28 0 7 0;
#X connect 28 0 17 0;
#X connect 28 0 9 1;
#X connect 28 0 18 0;
#X connect 28 0 24 0;
#X connect 29 0 14 0;
