#N canvas 152 149 1271 977 12;
#X obj 317 351 samphold~;
#X obj 241 408 *~;
#X obj 380 278 abs~;
#X obj 390 246 noise~;
#X obj 555 213 loadbang;
#X obj 340 643 dac~;
#X obj 276 284 phasor~;
#X obj 560 249 tgl 19 0 empty empty empty 0 -10 0 12 #fcfcfc #000000 #000000 0 1;
#X obj 242 450 *~;
#X floatatom 574 378 5 0 0 0 - - - 0;
#X floatatom 635 378 5 0 0 0 - - - 0;
#X floatatom 551 453 5 0 0 0 - - - 0;
#X obj 286 595 *~ 0.1;
#X obj 396 596 *~ 0.1;
#N canvas 710 139 387 572 kick 0;
#X obj -179 434 *~;
#X obj -179 409 cos~;
#X obj -180 385 *~;
#X obj -180 362 *~;
#X obj -163 218 t f f;
#X obj -179 338 *~;
#X obj -111 53 sel 0 1 2;
#X obj -54 85 t b b b;
#X obj -92 112 t b b b;
#X obj -129 142 t b b b;
#X text 25 405 efficient kick drum;
#X text -1 404 ajf;
#X msg -133 279 1 0 \, 0 \$1;
#X obj -133 301 line~;
#X obj -153 26 inlet;
#X obj -178 503 outlet~;
#X text -101 406 simplifed from:;
#X obj -162 468 *~ 3;
#X msg -107 196 25.5;
#X obj -163 244 / 29;
#X msg -163 194 110;
#X msg -70 196 15.9;
#X msg -30 198 10.1;
#X connect 0 0 17 0;
#X connect 1 0 0 0;
#X connect 2 0 1 0;
#X connect 3 0 2 0;
#X connect 4 0 19 0;
#X connect 4 1 12 0;
#X connect 5 0 3 1;
#X connect 5 0 3 0;
#X connect 6 0 9 0;
#X connect 6 1 8 0;
#X connect 6 2 7 0;
#X connect 7 0 20 0;
#X connect 7 1 22 0;
#X connect 8 0 20 0;
#X connect 8 1 21 0;
#X connect 9 0 20 0;
#X connect 9 1 18 0;
#X connect 12 0 13 0;
#X connect 13 0 0 1;
#X connect 13 0 5 0;
#X connect 13 0 2 1;
#X connect 14 0 6 0;
#X connect 17 0 15 0;
#X connect 18 0 19 1;
#X connect 19 0 5 1;
#X connect 20 0 4 0;
#X connect 21 0 19 1;
#X connect 22 0 19 1;
#X restore 504 409 pd kick;
#X obj 474 472 *~;
#X obj 511 347 random 3;
#X obj 276 509 osc~;
#X obj 539 494 / 10;
#X obj 437 313 *~ 0.3;
#X obj 591 420 random 8;
#X obj 376 453 *~ 2;
#X obj 429 501 osc~;
#X obj 732 235 sel 1 0;
#X obj 758 320 timer;
#X obj 728 282 t b b b;
#X obj 798 283 t b b b;
#X msg 840 327 stop;
#X obj 772 511 phasor~;
#X obj 777 479 /;
#X obj 778 583 *~;
#X obj 773 396 t b f f f;
#X obj 599 570 tabwrite~ samplebuf;
#X obj 600 612 tabread4~ samplebuf;
#X obj 670 250 tgl 15 0 empty empty empty 17 7 0 10 #fcfcfc #000000 #000000 0 1;
#X obj 443 648 table samplebuf 10000;
#X obj 531 294 metro 480;
#X obj 618 299 metro 240;
#N canvas 503 265 1310 472 hihat 0;
#X obj -316 -4672 *~;
#X obj -301 -4840 *~;
#X obj -302 -5046 t b b;
#X obj -302 -4933 pack f f;
#X obj -302 -5000 t f f;
#X msg -302 -5023 1;
#X obj -257 -4960 *;
#X obj -242 -4999 * 600;
#X obj -242 -5072 loadbang;
#X msg -242 -5022 0.1;
#X msg -302 -4910 \$1 0 \, 0 \$2;
#X obj -302 -4886 line~;
#X obj -163 -4845 *~;
#X obj -163 -4746 +~;
#X obj -163 -4722 osc~;
#X obj -192 -4845 +~;
#X obj -140 -4792 *~;
#X obj -111 -4793 *~;
#X obj -96 -4844 sig~ 1;
#X obj -96 -4816 -~;
#X msg -165 -5022 748.031 1023.62 0.173228 1968.5 9259.84;
#X obj -165 -4990 unpack f f f f f;
#X obj -165 -4958 osc~;
#X obj -142 -4932 osc~;
#X obj -134 -4845 *~;
#X obj -163 -4770 sig~;
#X obj -111 -4763 *~;
#X obj -302 -5071 sel 1;
#X obj -309 -5101 inlet;
#X obj -103 -5056 inlet;
#X obj -316 -4645 outlet~;
#X text -223 -4674 simplified from: ajf efficient hihat;
#X connect 0 0 30 0;
#X connect 1 0 0 1;
#X connect 2 0 5 0;
#X connect 3 0 10 0;
#X connect 4 0 3 0;
#X connect 4 1 6 0;
#X connect 5 0 4 0;
#X connect 6 0 3 1;
#X connect 7 0 6 1;
#X connect 8 0 9 0;
#X connect 8 0 20 0;
#X connect 9 0 7 0;
#X connect 10 0 11 0;
#X connect 11 0 1 0;
#X connect 11 0 1 1;
#X connect 11 0 24 0;
#X connect 12 0 17 0;
#X connect 13 0 14 0;
#X connect 14 0 0 0;
#X connect 15 0 16 0;
#X connect 16 0 26 0;
#X connect 17 0 26 0;
#X connect 18 0 19 0;
#X connect 18 0 16 1;
#X connect 19 0 17 1;
#X connect 20 0 21 0;
#X connect 21 0 22 0;
#X connect 21 1 23 0;
#X connect 21 2 24 1;
#X connect 21 3 26 1;
#X connect 21 4 25 0;
#X connect 22 0 12 0;
#X connect 22 0 15 0;
#X connect 23 0 12 1;
#X connect 23 0 15 1;
#X connect 24 0 19 1;
#X connect 25 0 13 0;
#X connect 26 0 13 1;
#X connect 27 0 2 0;
#X connect 28 0 27 0;
#X connect 29 0 20 0;
#X connect 29 0 9 0;
#X restore 550 526 pd hihat;
#X obj 645 453 tgl 15 0 empty empty empty 17 7 0 10 #fcfcfc #000000 #000000 0 1;
#X obj 688 381 random 2;
#X obj 315 400 *~ 0.5;
#X obj 409 398 * 32;
#X obj 778 454 *;
#X obj 800 365 sel 5000;
#X obj 415 562 *~ 0.7;
#X obj 648 502 *~ 0.5;
#X obj 344 556 *~ 3;
#X msg 774 427 1000;
#X obj 841 494 * 22;
#X text 310 202 Kick Osc Glitch;
#X obj 249 353 *~ 256;
#X obj 624 344 random 80;
#X connect 0 0 1 0;
#X connect 1 0 8 0;
#X connect 1 0 15 0;
#X connect 2 0 0 0;
#X connect 2 0 19 0;
#X connect 3 0 2 0;
#X connect 4 0 7 0;
#X connect 6 0 0 1;
#X connect 6 0 51 0;
#X connect 7 0 36 0;
#X connect 7 0 37 0;
#X connect 8 0 17 0;
#X connect 9 0 14 0;
#X connect 10 0 42 0;
#X connect 10 0 43 1;
#X connect 11 0 6 0;
#X connect 11 0 15 1;
#X connect 11 0 18 0;
#X connect 12 0 5 0;
#X connect 13 0 5 1;
#X connect 14 0 21 0;
#X connect 14 0 12 0;
#X connect 14 0 45 0;
#X connect 15 0 22 0;
#X connect 16 0 9 0;
#X connect 16 0 34 0;
#X connect 17 0 12 0;
#X connect 17 0 41 0;
#X connect 18 0 19 1;
#X connect 19 0 21 0;
#X connect 20 0 11 0;
#X connect 21 0 46 0;
#X connect 22 0 13 0;
#X connect 22 0 8 0;
#X connect 23 0 25 0;
#X connect 23 1 26 0;
#X connect 24 0 31 0;
#X connect 24 0 44 0;
#X connect 25 0 24 0;
#X connect 25 1 32 0;
#X connect 26 1 24 1;
#X connect 26 2 27 0;
#X connect 27 0 32 0;
#X connect 28 0 30 0;
#X connect 29 0 28 0;
#X connect 30 0 33 0;
#X connect 31 0 48 0;
#X connect 31 1 29 1;
#X connect 31 2 49 0;
#X connect 33 0 12 0;
#X connect 33 0 13 0;
#X connect 34 0 23 0;
#X connect 36 0 16 0;
#X connect 36 0 20 0;
#X connect 37 0 40 0;
#X connect 37 0 52 0;
#X connect 38 0 47 0;
#X connect 39 0 38 0;
#X connect 40 0 39 0;
#X connect 41 0 21 0;
#X connect 42 0 1 1;
#X connect 42 0 15 1;
#X connect 43 0 29 0;
#X connect 44 0 27 0;
#X connect 45 0 13 0;
#X connect 46 0 32 0;
#X connect 47 0 12 0;
#X connect 47 0 13 0;
#X connect 48 0 43 0;
#X connect 49 0 30 1;
#X connect 51 0 8 1;
#X connect 52 0 10 0;
