#N canvas 394 145 1022 713 12;
#X obj 178 511 dac~;
#X msg 117 217 \$1 10;
#X obj 140 144 vsl 15 50 0 1 0 0 empty empty A 0 -9 0 10 #ffffff #000000 #000000 0 1;
#X obj 117 242 line~ 0 10;
#X msg 213 218 \$1 10;
#X obj 244 148 vsl 15 50 0 1 0 0 empty empty B 0 -9 0 10 #ffffff #000000 #000000 0 1;
#X obj 213 243 line~ 0 10;
#X obj 117 268 *~ 1000;
#X obj 534 151 loadbang;
#X obj 213 268 *~ 1000;
#X msg 326 217 \$1 10;
#X obj 346 147 vsl 15 50 0 1 0 0 empty empty C 0 -9 0 10 #ffffff #000000 #000000 0 1;
#X obj 326 242 line~ 0 10;
#X msg 422 218 \$1 10;
#X obj 453 148 vsl 15 50 0 1 0 0 empty empty D 0 -9 0 10 #ffffff #000000 #000000 0 1;
#X obj 422 243 line~ 0 10;
#X obj 326 272 *~ 1000;
#X obj 425 276 *~ 1000;
#X obj 536 193 tgl 19 0 empty empty empty 0 -10 0 12 #fcfcfc #000000 #000000 0 1;
#X floatatom 415 504 5 0 0 0 - - - 0;
#X obj 424 478 / 10;
#X obj 418 454 random 10;
#X floatatom 504 507 5 0 0 0 - - - 0;
#X obj 513 481 / 10;
#X floatatom 603 505 5 0 0 0 - - - 0;
#X obj 612 479 / 10;
#X obj 606 455 random 10;
#X floatatom 692 508 5 0 0 0 - - - 0;
#X obj 701 482 / 10;
#X obj 208 311 osc~ 440;
#X obj 296 312 osc~ 220;
#X obj 396 314 osc~ 440;
#X obj 576 396 metro 360;
#X obj 665 399 metro 480;
#N canvas 710 139 387 572 kick 0;
#X obj -179 434 *~;
#X obj -179 409 cos~;
#X obj -180 385 *~;
#X obj -180 362 *~;
#X obj -163 218 t f f;
#X obj -179 338 *~;
#X obj -163 244 / 29;
#X msg -32 196 36.1;
#X obj -111 53 sel 0 1 2;
#X obj -54 85 t b b b;
#X obj -92 112 t b b b;
#X obj -129 142 t b b b;
#X text 25 405 efficient kick drum;
#X text -1 404 ajf;
#X msg -133 279 1 0 \, 0 \$1;
#X obj -133 301 line~;
#X obj -153 26 inlet;
#X obj -186 478 outlet~;
#X text -101 406 simplifed from:;
#X msg -163 184 110;
#X msg -107 196 10.5;
#X msg -70 196 50.9;
#X connect 0 0 17 0;
#X connect 1 0 0 0;
#X connect 2 0 1 0;
#X connect 3 0 2 0;
#X connect 4 0 6 0;
#X connect 4 1 14 0;
#X connect 5 0 3 1;
#X connect 5 0 3 0;
#X connect 6 0 5 1;
#X connect 7 0 6 1;
#X connect 8 0 11 0;
#X connect 8 1 10 0;
#X connect 8 2 9 0;
#X connect 9 0 19 0;
#X connect 9 1 7 0;
#X connect 10 0 19 0;
#X connect 10 1 21 0;
#X connect 11 0 19 0;
#X connect 11 1 20 0;
#X connect 14 0 15 0;
#X connect 15 0 0 1;
#X connect 15 0 5 0;
#X connect 15 0 2 1;
#X connect 16 0 8 0;
#X connect 19 0 4 0;
#X connect 20 0 6 1;
#X connect 21 0 6 1;
#X restore 174 421 pd kick;
#X msg 180 386 1;
#X msg 330 356 1;
#N canvas 503 265 1310 472 hihat 0;
#X obj -316 -4672 *~;
#X obj -301 -4840 *~;
#X obj -302 -5046 t b b;
#X obj -302 -4933 pack f f;
#X obj -302 -5000 t f f;
#X msg -302 -5023 1;
#X obj -257 -4960 *;
#X obj -242 -4999 * 600;
#X obj -242 -5072 loadbang;
#X msg -242 -5022 0.1;
#X msg -302 -4910 \$1 0 \, 0 \$2;
#X obj -302 -4886 line~;
#X obj -163 -4845 *~;
#X obj -163 -4746 +~;
#X obj -163 -4722 osc~;
#X obj -192 -4845 +~;
#X obj -140 -4792 *~;
#X obj -111 -4793 *~;
#X obj -96 -4844 sig~ 1;
#X obj -96 -4816 -~;
#X msg -165 -5022 748.031 1023.62 0.173228 1968.5 9259.84;
#X obj -165 -4990 unpack f f f f f;
#X obj -165 -4958 osc~;
#X obj -142 -4932 osc~;
#X obj -134 -4845 *~;
#X obj -163 -4770 sig~;
#X obj -111 -4763 *~;
#X obj -302 -5071 sel 1;
#X obj -309 -5101 inlet;
#X obj -103 -5056 inlet;
#X obj -316 -4645 outlet~;
#X text -223 -4674 simplified from: ajf efficient hihat;
#X connect 0 0 30 0;
#X connect 1 0 0 1;
#X connect 2 0 5 0;
#X connect 3 0 10 0;
#X connect 4 0 3 0;
#X connect 4 1 6 0;
#X connect 5 0 4 0;
#X connect 6 0 3 1;
#X connect 7 0 6 1;
#X connect 8 0 9 0;
#X connect 8 0 20 0;
#X connect 9 0 7 0;
#X connect 10 0 11 0;
#X connect 11 0 1 0;
#X connect 11 0 1 1;
#X connect 11 0 24 0;
#X connect 12 0 17 0;
#X connect 13 0 14 0;
#X connect 14 0 0 0;
#X connect 15 0 16 0;
#X connect 16 0 26 0;
#X connect 17 0 26 0;
#X connect 18 0 19 0;
#X connect 18 0 16 1;
#X connect 19 0 17 1;
#X connect 20 0 21 0;
#X connect 21 0 22 0;
#X connect 21 1 23 0;
#X connect 21 2 24 1;
#X connect 21 3 26 1;
#X connect 21 4 25 0;
#X connect 22 0 12 0;
#X connect 22 0 15 0;
#X connect 23 0 12 1;
#X connect 23 0 15 1;
#X connect 24 0 19 1;
#X connect 25 0 13 0;
#X connect 26 0 13 1;
#X connect 27 0 2 0;
#X connect 28 0 27 0;
#X connect 29 0 20 0;
#X connect 29 0 9 0;
#X restore 277 405 pd hihat;
#X obj 388 396 metro 120;
#X obj 477 398 metro 240;
#X obj 119 384 *~ 0.2;
#X obj 220 385 *~ 0.2;
#X obj 503 455 random 20;
#X obj 695 458 random 20;
#X obj 335 461 random 2;
#X obj 321 507 +;
#X obj 243 430 *~ 0.3;
#X obj 262 454 *~ 0.6;
#X obj 117 311 osc~ 880;
#X text 168 100 Four osc drum noodle;
#X obj 121 475 *~ 0.1;
#X obj 223 478 *~ 0.1;
#X connect 1 0 3 0;
#X connect 2 0 1 0;
#X connect 3 0 7 0;
#X connect 4 0 6 0;
#X connect 5 0 4 0;
#X connect 6 0 9 0;
#X connect 7 0 48 0;
#X connect 8 0 18 0;
#X connect 9 0 29 0;
#X connect 10 0 12 0;
#X connect 11 0 10 0;
#X connect 12 0 16 0;
#X connect 13 0 15 0;
#X connect 14 0 13 0;
#X connect 15 0 17 0;
#X connect 16 0 30 0;
#X connect 17 0 31 0;
#X connect 18 0 32 0;
#X connect 18 0 33 0;
#X connect 18 0 38 0;
#X connect 18 0 39 0;
#X connect 19 0 2 0;
#X connect 19 0 36 0;
#X connect 20 0 19 0;
#X connect 21 0 20 0;
#X connect 22 0 5 0;
#X connect 23 0 22 0;
#X connect 24 0 11 0;
#X connect 25 0 24 0;
#X connect 26 0 25 0;
#X connect 27 0 14 0;
#X connect 28 0 27 0;
#X connect 29 0 7 0;
#X connect 29 0 41 0;
#X connect 30 0 9 0;
#X connect 30 0 40 0;
#X connect 31 0 16 0;
#X connect 31 0 41 0;
#X connect 32 0 26 0;
#X connect 33 0 43 0;
#X connect 33 0 35 0;
#X connect 34 0 50 0;
#X connect 34 0 51 0;
#X connect 35 0 34 0;
#X connect 36 0 45 0;
#X connect 37 0 46 0;
#X connect 37 0 47 0;
#X connect 38 0 21 0;
#X connect 38 0 44 0;
#X connect 39 0 42 0;
#X connect 40 0 50 0;
#X connect 41 0 51 0;
#X connect 42 0 23 0;
#X connect 43 0 28 0;
#X connect 44 0 45 1;
#X connect 45 0 37 0;
#X connect 46 0 50 0;
#X connect 47 0 51 0;
#X connect 48 0 40 0;
#X connect 50 0 0 0;
#X connect 51 0 0 1;
