#N canvas 324 0 1600 1041 12;
#X floatatom 321 406 5 0 0 0 - - - 0;
#X floatatom 495 372 5 0 0 0 - - - 0;
#X floatatom 543 410 5 0 0 0 - - - 0;
#X obj 477 410 osc~;
#X obj 483 464 *~;
#X obj 310 478 +~;
#X obj 309 517 osc~;
#N canvas 622 300 387 569 kick 0;
#X obj 91 430 *~;
#X obj 91 405 cos~;
#X obj 90 381 *~;
#X obj 90 358 *~;
#X obj 107 214 t f f;
#X obj 91 334 *~;
#X obj 141 138 t b b b;
#X msg 137 275 1 0 \, 0 \$1;
#X obj 137 297 line~;
#X obj 123 14 inlet;
#X obj 92 499 outlet~;
#X msg 107 190 110;
#X obj 101 255 / 29;
#X msg 163 192 32;
#X connect 0 0 10 0;
#X connect 1 0 0 0;
#X connect 2 0 1 0;
#X connect 3 0 2 0;
#X connect 4 0 12 0;
#X connect 4 1 7 0;
#X connect 5 0 3 1;
#X connect 5 0 3 0;
#X connect 6 0 11 0;
#X connect 6 1 13 0;
#X connect 7 0 8 0;
#X connect 8 0 0 1;
#X connect 8 0 5 0;
#X connect 8 0 2 1;
#X connect 9 0 6 0;
#X connect 11 0 4 0;
#X connect 12 0 5 1;
#X connect 13 0 12 1;
#X restore 298 292 pd kick;
#N canvas 1089 340 387 572 trikick 0;
#X obj 110 443 *~;
#X obj 110 418 cos~;
#X obj 109 394 *~;
#X obj 109 371 *~;
#X obj 126 227 t f f;
#X obj 110 347 *~;
#X obj 178 62 sel 0 1 2;
#X obj 235 94 t b b b;
#X obj 197 121 t b b b;
#X obj 160 151 t b b b;
#X msg 156 288 1 0 \, 0 \$1;
#X obj 156 310 line~;
#X obj 136 35 inlet;
#X obj 111 512 outlet~;
#X obj 126 253 / 29;
#X msg 126 203 110;
#X obj 111 480 *~ 0.5;
#X msg 259 206 15;
#X msg 182 205 8;
#X msg 222 205 12;
#X connect 0 0 16 0;
#X connect 1 0 0 0;
#X connect 2 0 1 0;
#X connect 3 0 2 0;
#X connect 4 0 14 0;
#X connect 4 1 10 0;
#X connect 5 0 3 1;
#X connect 5 0 3 0;
#X connect 6 0 9 0;
#X connect 6 1 8 0;
#X connect 6 2 7 0;
#X connect 7 0 15 0;
#X connect 7 1 17 0;
#X connect 8 0 15 0;
#X connect 8 1 19 0;
#X connect 9 0 15 0;
#X connect 9 1 18 0;
#X connect 10 0 11 0;
#X connect 11 0 0 1;
#X connect 11 0 5 0;
#X connect 11 0 2 1;
#X connect 12 0 6 0;
#X connect 14 0 5 1;
#X connect 15 0 4 0;
#X connect 16 0 13 0;
#X connect 17 0 14 1;
#X connect 18 0 14 1;
#X connect 19 0 14 1;
#X restore 373 293 pd trikick;
#X obj 311 197 f;
#X obj 341 197 + 1;
#X obj 311 162 t b b;
#X obj 311 223 mod 4;
#X obj 310 256 sel 0;
#N canvas 622 300 603 656 block 0;
#X obj 187 323 cos~;
#X obj 210 378 *~;
#X obj 262 363 line~;
#X obj 253 293 t b b;
#X msg 282 322 0 40;
#X obj 191 209 phasor~ 700;
#X obj 346 199 inlet;
#X obj 239 466 outlet~;
#X msg 232 323 0.1;
#X connect 0 0 1 0;
#X connect 1 0 7 0;
#X connect 2 0 1 1;
#X connect 3 0 4 0;
#X connect 3 1 8 0;
#X connect 4 0 2 0;
#X connect 5 0 0 0;
#X connect 6 0 3 0;
#X connect 8 0 2 0;
#X restore 476 293 pd block;
#X obj 311 131 metro 120;
#X obj 331 71 loadbang;
#X obj 328 103 tgl 19 0 empty empty empty 0 -10 0 12 #fcfcfc #000000 #000000 0 1;
#X obj 384 256 random 8;
#X obj 565 258 random 16;
#X obj 383 332 *~;
#X obj 317 561 *~ 0.2;
#X obj 401 370 *~ 2;
#X obj 465 255 random 220;
#X obj 376 448 samphold~;
#X obj 326 370 *;
#X obj 377 411 *~ 0.2;
#X obj 390 647 dac~;
#X obj 333 611 *~ 0.3;
#X obj 435 614 *~ 0.3;
#X obj 484 332 *~ 3;
#X obj 438 372 *~ 4;
#X obj 383 563 *~ 0.3;
#X connect 0 0 5 0;
#X connect 1 0 3 0;
#X connect 2 0 4 1;
#X connect 3 0 4 0;
#X connect 3 0 24 1;
#X connect 4 0 5 1;
#X connect 5 0 6 0;
#X connect 6 0 21 0;
#X connect 6 0 24 0;
#X connect 6 0 32 0;
#X connect 7 0 28 0;
#X connect 7 0 29 0;
#X connect 8 0 20 0;
#X connect 8 0 26 0;
#X connect 9 0 10 0;
#X connect 9 0 12 0;
#X connect 10 0 9 1;
#X connect 11 0 18 0;
#X connect 11 0 19 0;
#X connect 11 0 23 0;
#X connect 11 1 9 0;
#X connect 12 0 13 0;
#X connect 13 0 7 0;
#X connect 14 0 20 1;
#X connect 14 0 30 0;
#X connect 15 0 11 0;
#X connect 16 0 17 0;
#X connect 17 0 15 0;
#X connect 18 0 8 0;
#X connect 18 0 25 1;
#X connect 19 0 14 0;
#X connect 20 0 22 0;
#X connect 20 0 31 0;
#X connect 21 0 28 0;
#X connect 22 0 28 0;
#X connect 23 0 2 0;
#X connect 23 0 1 0;
#X connect 23 0 25 0;
#X connect 24 0 21 0;
#X connect 25 0 0 0;
#X connect 26 0 28 0;
#X connect 28 0 27 0;
#X connect 29 0 27 1;
#X connect 30 0 29 0;
#X connect 31 0 29 0;
#X connect 32 0 29 0;
