#N canvas 1032 582 236 324 12;
#X obj 24 164 cos~;
#X obj 47 219 *~;
#X obj 99 204 line~;
#X obj 90 134 t b b;
#X msg 119 163 0 40;
#X obj 28 50 phasor~ 700;
#X obj 183 40 inlet;
#X obj 65 266 outlet~;
#X msg 69 164 0.1;
#X connect 0 0 1 0;
#X connect 1 0 7 0;
#X connect 2 0 1 1;
#X connect 3 0 4 0;
#X connect 3 1 8 0;
#X connect 4 0 2 0;
#X connect 5 0 0 0;
#X connect 6 0 3 0;
#X connect 8 0 2 0;
