#N canvas 351 254 701 504 10;
#X obj 62 83 mtof;
#X obj 63 283 +~;
#X obj 109 244 *~;
#X obj 109 267 *~;
#X obj 62 105 sig~;
#X msg 185 226 \$1 50;
#X obj 185 250 line~;
#X obj 142 478 outlet~;
#X obj 63 306 phasor~;
#X obj 124 145 phasor~;
#X obj 82 337 *~ -1;
#X obj 82 360 +~ 1;
#X obj 62 383 min~;
#X obj 62 406 *~ 4;
#X obj 62 429 -~ 1;
#X obj 124 168 *~ 2;
#X obj 124 191 -~ 1;
#X obj 124 214 abs~;
#X obj 62 14 inlet;
#X obj 124 122 *~ 1;
#X obj 145 98 clip -10 10;
#X obj 185 203 clip -10 10;
#X obj 145 14 loadbang;
#X obj 145 61 f \$2;
#X obj 185 61 f \$3;
#X obj 62 61 t f b;
#X obj 143 385 *~;
#X obj 143 408 clip~ -1 1;
#X obj 143 431 *~ 0.25;
#X connect 0 0 4 0;
#X connect 1 0 8 0;
#X connect 2 0 3 0;
#X connect 3 0 1 1;
#X connect 4 0 1 0;
#X connect 4 0 2 0;
#X connect 4 0 19 0;
#X connect 5 0 6 0;
#X connect 6 0 3 1;
#X connect 6 0 26 1;
#X connect 8 0 10 0;
#X connect 8 0 12 0;
#X connect 9 0 15 0;
#X connect 10 0 11 0;
#X connect 11 0 12 1;
#X connect 12 0 13 0;
#X connect 13 0 14 0;
#X connect 14 0 26 0;
#X connect 15 0 16 0;
#X connect 16 0 17 0;
#X connect 17 0 2 1;
#X connect 18 0 25 0;
#X connect 19 0 9 0;
#X connect 20 0 19 1;
#X connect 21 0 5 0;
#X connect 22 0 23 0;
#X connect 22 0 24 0;
#X connect 23 0 20 0;
#X connect 24 0 21 0;
#X connect 25 0 0 0;
#X connect 26 0 27 0;
#X connect 27 0 28 0;
#X connect 28 0 7 0;
