#N canvas 311 147 1275 766 12;
#X obj 270 109 tgl 15 0 empty empty empty 17 7 0 10 #fcfcfc #000000 #000000 0 1;
#X obj 326 494 dac~;
#X obj 347 293 hihat~;
#X floatatom 164 258 3 0 0 0 - - - 0;
#X obj 204 226 - 1;
#X floatatom 376 145 3 0 0 0 - - - 0;
#X obj 365 193 random;
#X obj 258 137 metro 240;
#X obj 368 111 * 50;
#X floatatom 452 143 3 0 0 0 - - - 0;
#X obj 444 181 random;
#X obj 444 109 * 40;
#X obj 257 78 loadbang;
#X obj 207 367 crunch~;
#X obj 336 362 crunch~;
#X obj 437 411 feedmod~;
#X obj 505 134 random 100;
#X floatatom 541 250 3 0 0 0 - - - 0;
#X obj 539 208 + 0.5;
#X obj 538 167 / 200;
#X text 415 79 Markov Glitch Noodle;
#X obj 156 288 kick~ 0 110 25 35 20;
#X obj 259 201 markov~;
#X obj 427 496 *~ 6;
#X obj 453 272 *~ 2;
#X obj 284 451 *~ 0.1;
#X obj 375 450 *~ 0.1;
#X obj 428 359 *~ 0.6;
#X msg 499 356 50;
#X obj 435 309 fmosc~ 0 50 220 110;
#X obj 359 245 - 8;
#X obj 455 450 blocks~;
#X obj 446 228 snare~;
#X obj 180 332 *~ 0.8;
#X obj 168 401 *~ 0.4;
#X connect 0 0 7 0;
#X connect 0 0 28 0;
#X connect 2 0 25 0;
#X connect 2 0 26 0;
#X connect 3 0 21 0;
#X connect 4 0 3 0;
#X connect 5 0 6 1;
#X connect 6 0 13 1;
#X connect 6 0 30 0;
#X connect 7 0 6 0;
#X connect 7 0 10 0;
#X connect 7 0 16 0;
#X connect 7 0 22 0;
#X connect 8 0 5 0;
#X connect 9 0 10 1;
#X connect 10 0 14 1;
#X connect 11 0 9 0;
#X connect 12 0 0 0;
#X connect 13 0 25 0;
#X connect 14 0 26 0;
#X connect 15 0 25 0;
#X connect 15 0 26 0;
#X connect 16 0 19 0;
#X connect 17 0 15 2;
#X connect 18 0 17 0;
#X connect 19 0 18 0;
#X connect 21 0 14 0;
#X connect 21 0 33 0;
#X connect 21 0 34 0;
#X connect 22 0 4 0;
#X connect 22 0 8 0;
#X connect 22 0 11 0;
#X connect 22 1 2 0;
#X connect 22 1 32 0;
#X connect 22 2 2 0;
#X connect 22 2 31 0;
#X connect 22 3 31 0;
#X connect 22 3 32 0;
#X connect 23 0 25 0;
#X connect 23 0 26 0;
#X connect 24 0 15 0;
#X connect 25 0 1 0;
#X connect 26 0 1 1;
#X connect 27 0 15 0;
#X connect 28 0 15 1;
#X connect 29 0 13 0;
#X connect 29 0 14 0;
#X connect 29 0 27 0;
#X connect 30 0 29 0;
#X connect 31 0 23 0;
#X connect 32 0 24 0;
#X connect 32 0 26 0;
#X connect 33 0 13 0;
#X connect 34 0 25 0;
