#N canvas 260 260 820 665 12;
#X obj 63 307 bng 15 250 50 0 empty empty empty 20 8 0 8 #fcfcfc #000000 #000000;
#X obj 63 390 bng 15 250 50 0 empty empty empty 20 8 0 8 #fcfcfc #000000 #000000;
#X obj 158 391 bng 15 250 50 0 empty empty empty 20 8 0 8 #fcfcfc #000000 #000000;
#X obj 233 391 bng 15 250 50 0 empty empty empty 20 8 0 8 #fcfcfc #000000 #000000;
#X msg 63 413 1;
#X msg 158 414 2;
#X msg 232 413 3;
#X obj 258 252 sel 1 2 3;
#X obj 278 309 bng 15 250 50 0 empty empty empty 20 8 0 8 #fcfcfc #000000 #000000;
#X obj 278 392 bng 15 250 50 0 empty empty empty 20 8 0 8 #fcfcfc #000000 #000000;
#X obj 370 391 bng 15 250 50 0 empty empty empty 20 8 0 8 #fcfcfc #000000 #000000;
#X obj 445 393 bng 15 250 50 0 empty empty empty 20 8 0 8 #fcfcfc #000000 #000000;
#X msg 278 414 1;
#X msg 370 413 2;
#X msg 444 414 3;
#X obj 496 311 bng 15 250 50 0 empty empty empty 20 8 0 8 #fcfcfc #000000 #000000;
#X obj 496 394 bng 15 250 50 0 empty empty empty 20 8 0 8 #fcfcfc #000000 #000000;
#X obj 590 394 bng 15 250 50 0 empty empty empty 20 8 0 8 #fcfcfc #000000 #000000;
#X obj 666 395 bng 15 250 50 0 empty empty empty 20 8 0 8 #fcfcfc #000000 #000000;
#X msg 495 416 1;
#X msg 589 418 2;
#X msg 666 418 3;
#X obj 258 224 f 1;
#X obj 63 330 random 100;
#X obj 63 362 moses 30;
#X obj 158 363 moses 60;
#X obj 278 332 random 100;
#X obj 278 364 moses 10;
#X obj 370 363 moses 60;
#X obj 496 334 random 100;
#X obj 496 366 moses 70;
#X obj 590 366 moses 80;
#X floatatom 295 202 3 0 0 0 - - - 0;
#X obj 279 169 r \$0-state;
#X obj 158 462 s \$0-state;
#X obj 369 459 s \$0-state;
#X obj 590 467 s \$0-state;
#X obj 163 160 inlet;
#X obj 76 574 outlet;
#X obj 196 575 outlet;
#X obj 305 575 outlet;
#X obj 397 574 outlet;
#X connect 0 0 23 0;
#X connect 1 0 4 0;
#X connect 2 0 5 0;
#X connect 3 0 6 0;
#X connect 4 0 34 0;
#X connect 4 0 39 0;
#X connect 5 0 34 0;
#X connect 6 0 34 0;
#X connect 7 0 0 0;
#X connect 7 1 8 0;
#X connect 7 2 15 0;
#X connect 8 0 26 0;
#X connect 9 0 12 0;
#X connect 10 0 13 0;
#X connect 11 0 14 0;
#X connect 12 0 35 0;
#X connect 12 0 40 0;
#X connect 13 0 35 0;
#X connect 14 0 35 0;
#X connect 15 0 29 0;
#X connect 16 0 19 0;
#X connect 17 0 20 0;
#X connect 18 0 21 0;
#X connect 19 0 36 0;
#X connect 19 0 41 0;
#X connect 20 0 36 0;
#X connect 21 0 36 0;
#X connect 22 0 7 0;
#X connect 23 0 24 0;
#X connect 24 0 1 0;
#X connect 24 1 25 0;
#X connect 25 0 2 0;
#X connect 25 1 3 0;
#X connect 26 0 27 0;
#X connect 27 0 9 0;
#X connect 27 1 28 0;
#X connect 28 0 10 0;
#X connect 28 1 11 0;
#X connect 29 0 30 0;
#X connect 30 0 16 0;
#X connect 30 1 31 0;
#X connect 31 0 17 0;
#X connect 31 1 18 0;
#X connect 32 0 22 1;
#X connect 32 0 38 0;
#X connect 33 0 32 0;
#X connect 37 0 22 0;
