#N canvas 383 751 450 300 12;
#X obj 207 57 osc~ 230;
#X obj 137 149 line~;
#X obj 139 201 *~;
#X obj 269 55 noise~;
#X obj 271 135 hip~ 700;
#X obj 128 79 t b b;
#X msg 107 109 1;
#X msg 157 108 0 40;
#X obj 209 103 *~ 0.1;
#X obj 271 101 *~ 0.1;
#X obj 133 258 outlet~;
#X obj 118 24 inlet;
#X connect 0 0 8 0;
#X connect 1 0 2 0;
#X connect 2 0 10 0;
#X connect 3 0 9 0;
#X connect 4 0 2 1;
#X connect 5 0 7 0;
#X connect 5 1 6 0;
#X connect 6 0 1 0;
#X connect 7 0 1 0;
#X connect 8 0 2 1;
#X connect 9 0 4 0;
#X connect 11 0 5 0;
